<?xml version="1.0" encoding="UTF-8" standalone="no"?>
<!-- Created with Inkscape (http://www.inkscape.org/) -->

<svg
   version="1.1"
   id="svg25"
   xml:space="preserve"
   width="793.33331"
   height="1122.6667"
   viewBox="0 0 793.33331 1122.6667"
   xmlns="http://www.w3.org/2000/svg"
   xmlns:svg="http://www.w3.org/2000/svg"><defs
     id="defs29"><rect
       x="297.89552"
       y="455.81034"
       width="212.7752"
       height="116.50079"
       id="rect9715" /></defs><g
     id="g31"
     transform="matrix(1.3333333,0,0,-1.3333333,0,1122.6667)"><g
       id="g33"
       transform="scale(0.1)"><path
         d="m 3963.3462,4558.6624 c 0,510.044 -413.4887,923.5327 -923.5327,923.5327 -510.044,0 -923.5327,-413.4887 -923.5327,-923.5327 0,-510.044 413.4887,-923.5326 923.5327,-923.5326 510.044,0 923.5327,413.4886 923.5327,923.5326 l 115.4416,115.4416 c 0,573.8024 -465.1719,1038.9743 -1038.9743,1038.9743 -573.8024,0 -1038.9742,-465.1719 -1038.9742,-1038.9743 0,-573.8024 465.1718,-1038.9742 1038.9742,-1038.9742 573.8024,0 1038.9743,465.1718 1038.9743,1038.9742"
         style="fill:#524b2b;fill-opacity:1.0;fill-rule:evenodd;stroke:none;stroke-width:1.15442"
         id="path35" /><path
         d="m 2912.8278,3646.6739 v -473.3105 l 4.2367,-17.7318 c -727.4783,63.6429 -1285.6383,672.782 -1285.6383,1403.0308 l 2.1587,-80.5667 c 86.1772,-613.191 562.7662,-1098.1727 1174.3642,-1195.0397 l 0.9813,-109.6926 v 496.3988"
         style="fill:#2c0734;fill-opacity:1.0;fill-rule:evenodd;stroke:none;stroke-width:1.15442"
         id="path37" /><path
         d="m 3166.7993,3646.6739 v -473.3105 l -4.2367,-17.7318 c 727.4782,63.6429 1285.6383,672.782 1285.6383,1403.0308 l -2.1588,-80.5667 C 4359.865,3864.9047 3883.2759,3379.923 3271.6779,3283.056 l -0.9812,-109.6926 v 496.3988"
         style="fill:#090606;fill-opacity:1.0;fill-rule:nonzero;stroke:none;stroke-width:1.15442"
         id="path39" /><path
         d="m 1032.9424,3828.2173 c 307.0746,-843.6817 1109.0473,-1405.2242 2006.8711,-1405.2242 897.8239,0 1699.7965,561.5425 2006.8712,1405.2242 l -1.1198,8.612 C 4661.2714,3082.5917 3886.312,2607.6996 3039.8135,2607.6996 c -846.4985,0 -1621.4463,474.8921 -2005.7513,1229.1297"
         style="fill:#125f2d;fill-opacity:1.0;fill-rule:evenodd;stroke:none;stroke-width:1.15442"
         id="path41" /><path
         d="m 3961.1528,6176.0106 c -283.6746,150.836 -600.0538,229.7172 -921.3393,229.7172 -926.6149,0 -1726.9715,-648.1122 -1919.6204,-1554.4787 l -0.912,-9.1199 c 87.1123,995.8107 920.9237,1759.8493 1920.5324,1759.8493 338.4055,0 670.8657,-89.0863 963.9373,-258.289"
         style="fill:#1c2f1a;fill-opacity:1.0;fill-rule:evenodd;stroke:none;stroke-width:1.15442"
         id="path43" /><path
         d="m 4194.2294,6405.7278 v 150.074 l -230.8832,-230.8831 v -150.0741 l 230.8832,230.8832"
         style="fill:#222617;fill-opacity:1.0;fill-rule:evenodd;stroke:none;stroke-width:1.15442"
         id="path45" /><path
         d="m 4959.4339,4851.2491 c -78.8812,371.1101 -263.6455,711.3972 -531.9202,979.6719 l -2.4012,182.3054 1.5008,0.092 c 306.8206,-317.7184 495.2444,-731.184 533.7326,-1171.1896"
         style="fill:#2e4829;fill-opacity:1.0;fill-rule:evenodd;stroke:none;stroke-width:1.15442"
         id="path47" /><path
         d="m 5576.0421,4541.1846 c 2.3203,44.2603 3.4863,88.5898 3.4863,132.9194 0,1402.6384 -1137.0765,2539.7149 -2539.7149,2539.7149 -1402.6383,0 -2539.71487,-1137.0765 -2539.71487,-2539.7149 0,-44.3296 1.16366,-88.6591 3.48172,-132.9194 l -3.48172,-97.9638 c 0,1402.6384 1137.07657,2539.7149 2539.71487,2539.7149 1402.6384,0 2539.7149,-1137.0765 2539.7149,-2539.7149"
         style="fill:#4a2b45;fill-opacity:1.0;fill-rule:evenodd;stroke:none;stroke-width:1.15442"
         id="path49" /><path
         d="M 463.82458,3671.6786 C 842.38298,2572.236 1877.0282,1834.241 3039.8135,1834.241 c 1127.9451,0 2139.248,695.0507 2543.4667,1748.0742 l -0.785,-3.9365 C 5291.4439,2411.0218 4242.8995,1591.8137 3039.8135,1591.8137 c -1203.086,0 -2251.63042,819.2081 -2542.68171,1986.565"
         style="fill:#171016;fill-opacity:1.0;fill-rule:evenodd;stroke:none;stroke-width:1.15442"
         id="path51" /><path
         d="M 153.77388,4443.2208 H 500.09863 V 4674.104 H 153.77388 Z"
         style="fill:#012c04;fill-opacity:1.0;fill-rule:evenodd;stroke:none;stroke-width:1.15442"
         id="path53" /><text
         xml:space="preserve"
         transform="matrix(7.5000002,0,0,-7.5000002,0,8420.0005)"
         id="text9713"
         style="font-style:normal;font-weight:normal;font-size:40px;line-height:1.25;font-family:sans-serif;white-space:pre;shape-inside:url(#rect9715);fill:#59324f;fill-opacity:1;stroke:none" /></g></g></svg>
